<?xml version="1.0" encoding="UTF-8"?>
<svg version="1.1" xmlns="http://www.w3.org/2000/svg" width="700" height="602">
<path d="M0 0 C5.11477531 4.12446775 7.52316126 8.85459108 9.75390625 14.96875 C10.13279243 16.00319244 10.13279243 16.00319244 10.51933289 17.05853271 C13.58722219 25.49990133 16.48938255 34.00076593 19.37915039 42.50439453 C20.32581277 45.28916176 21.27691942 48.07238407 22.22851562 50.85546875 C22.83619564 52.63793285 23.44362705 54.42048173 24.05078125 56.203125 C24.33303055 57.02911194 24.61527985 57.85509888 24.90608215 58.70611572 C25.166931 59.47502136 25.42777985 60.243927 25.6965332 61.03613281 C25.92492386 61.70735168 26.15331451 62.37857056 26.3886261 63.07012939 C29.0090866 71.34190821 29.10476136 79.67489891 25.42578125 87.65234375 C21.3435239 94.37408804 15.88988191 97.91392673 8.58984375 100.57421875 C7.91479294 100.82090805 7.23974213 101.06759735 6.54423523 101.32176208 C-5.4143582 105.64788797 -17.47154329 109.70573514 -29.50544739 113.81669617 C-33.220741 115.08654649 -36.935061 116.35923762 -40.64941406 117.63183594 C-42.17043876 118.15292916 -43.69146538 118.67401678 -45.2124939 119.19509888 C-45.96957012 119.45446354 -46.72664635 119.7138282 -47.50666428 119.9810524 C-49.81561142 120.77193501 -52.12466256 121.56251323 -54.43374634 122.35299683 C-69.37804123 127.46924721 -84.31501397 132.60664831 -99.25 137.75 C-100.51674032 138.18614751 -101.7834843 138.62228437 -103.05023193 139.05841064 C-121.93058149 145.55887298 -140.80503629 152.07630486 -159.67712402 158.60070801 C-179.79836826 165.55637067 -199.93048108 172.48012104 -220.0652771 179.39642334 C-241.1718029 186.64668579 -262.27031868 193.91974163 -283.359375 201.22070312 C-296.51135698 205.77147842 -309.67473071 210.28815523 -322.84326172 214.79077148 C-324.61250834 215.39585602 -326.38174971 216.00095592 -328.15098572 216.60607147 C-332.43393008 218.07089098 -336.716945 219.53550402 -341 221 C-339.81432371 221.00146521 -339.81432371 221.00146521 -338.60469437 221.00296003 C-291.76648537 221.06121946 -244.92832293 221.1350067 -198.09017128 221.22898628 C-192.46750373 221.24025458 -186.84483593 221.25139301 -181.22216797 221.26245117 C-179.54309488 221.2657567 -179.54309488 221.2657567 -177.83010113 221.269129 C-159.70013944 221.30451097 -141.57017779 221.32937003 -123.44019437 221.35034702 C-104.84012397 221.37210189 -86.24009841 221.40514935 -67.64006615 221.44870156 C-56.16088231 221.47522364 -44.68175437 221.49291493 -33.20254141 221.49934604 C-25.3331047 221.5045982 -17.46373834 221.52080945 -9.59433931 221.54566566 C-5.05266632 221.55968647 -0.51111928 221.56884928 4.03057671 221.56500816 C8.18962044 221.56159732 12.34839518 221.57196631 16.50738382 221.59323552 C18.01087172 221.59850271 19.51438757 221.59873903 21.01787519 221.59339563 C31.13850541 221.56109453 39.58955205 221.98085428 47.39453125 229.125 C54.28379971 237.17086098 55.14966217 245.90130846 55.14044189 256.02253723 C55.14489858 257.5494693 55.14489858 257.5494693 55.1494453 259.10724849 C55.1581264 262.52308607 55.15964008 265.93888858 55.16113281 269.35473633 C55.16576158 271.80238927 55.17078632 274.25004149 55.17617798 276.69769287 C55.18930259 283.35321885 55.19578471 290.00873112 55.20018864 296.66426682 C55.20295512 300.8258637 55.20719337 304.98745826 55.21169281 309.14905357 C55.22388689 320.68625778 55.23418383 332.22346015 55.2375679 343.76067066 C55.23778747 344.49884049 55.23800703 345.23701031 55.23823325 345.99754892 C55.23845153 346.73743302 55.23866981 347.47731711 55.2388947 348.23962194 C55.23933816 349.73876814 55.23978472 351.23791434 55.24023438 352.73706055 C55.2404558 353.48068038 55.24067723 354.22430021 55.24090537 354.99045398 C55.24484616 367.01679417 55.26227753 379.0430735 55.2855939 391.06939021 C55.30937584 403.43648388 55.32177296 415.80354713 55.32293582 428.17066401 C55.32384909 435.10613264 55.32951253 442.04152209 55.34775543 448.97696877 C55.36487887 455.50967229 55.36635815 462.04225299 55.35761642 468.57498169 C55.35684961 470.96291697 55.36114145 473.35086051 55.37107468 475.73877525 C55.45106444 496.17967149 55.24215387 516.21789251 40.26171875 531.96875 C25.57664767 545.15741487 8.89781726 547.30367176 -9.98243713 547.26742554 C-11.826714 547.27116455 -13.67098928 547.27576707 -15.51526207 547.28115618 C-20.57196141 547.29337081 -25.62859451 547.29312751 -30.68530524 547.29076743 C-36.14359212 547.29035887 -41.60185788 547.30140225 -47.06013489 547.31088257 C-57.75045888 547.32748573 -68.44076081 547.33299183 -79.13109661 547.33410732 C-87.82354023 547.33505824 -96.51597658 547.3391707 -105.20841789 547.34550858 C-129.86540972 547.36312006 -154.52238639 547.37235989 -179.17938424 547.37084763 C-180.17567937 547.37078779 -180.17567937 547.37078779 -181.19210168 547.37072675 C-182.53526982 547.37064587 -183.87843797 547.37056228 -185.22160612 547.37047596 C-206.10813311 547.3692511 -226.99459511 547.38425333 -247.88110352 547.41162109 C-271.36535785 547.44238027 -294.84957655 547.45952591 -318.33385319 547.45769465 C-330.76114317 547.45703135 -343.18835986 547.46249722 -355.61563301 547.48405075 C-366.19834226 547.50228773 -376.78094502 547.50658926 -387.3636632 547.4930319 C-392.75906742 547.48651468 -398.15426747 547.48634004 -403.5496521 547.5037384 C-408.49766886 547.51952943 -413.44532059 547.51654413 -418.39332878 547.49917014 C-420.17462636 547.49611346 -421.9559516 547.49968186 -423.73721654 547.51089029 C-438.84329292 547.59957875 -453.43903836 546.29230991 -466 537 C-466.63164062 536.54882812 -467.26328125 536.09765625 -467.9140625 535.6328125 C-479.26900776 526.7789565 -484.87566586 512.86590962 -487 499 C-487.25672289 495.40722351 -487.26670967 491.83379796 -487.24723816 488.23297119 C-487.24965257 487.19552159 -487.25206699 486.15807199 -487.25455457 485.08918452 C-487.260158 481.63784141 -487.25155392 478.18668615 -487.24291992 474.73535156 C-487.24399361 472.251032 -487.24593359 469.76671269 -487.24867249 467.28239441 C-487.25300754 461.25115138 -487.24809789 455.21998101 -487.23882218 449.18874893 C-487.2284037 442.16027596 -487.22850927 435.1318147 -487.22899476 428.10333547 C-487.22949456 415.56285658 -487.22035492 403.02240326 -487.20581055 390.48193359 C-487.19171273 378.320145 -487.18464036 366.1583789 -487.18530273 353.99658203 C-487.18536267 352.87204669 -487.18536267 352.87204669 -487.18542381 351.72479346 C-487.18546417 350.97638229 -487.18550452 350.22797111 -487.1855461 349.45688081 C-487.18623619 335.59600706 -487.18034608 321.73514284 -487.17139288 307.87427218 C-487.16837941 302.97727988 -487.16731368 298.08028933 -487.16686058 293.1832962 C-487.16610664 286.59394756 -487.1597563 280.0046195 -487.14969444 273.41527748 C-487.14677191 270.99572965 -487.14554358 268.57617909 -487.14612198 266.15662956 C-487.14661225 262.85742593 -487.14096106 259.55828863 -487.13371277 256.25909424 C-487.13526137 255.29898257 -487.13680997 254.33887089 -487.1384055 253.34966493 C-487.12174596 248.7664539 -486.81990671 244.52294684 -486 240 C-486.50058463 237.37665009 -486.50058463 237.37665009 -487.52294922 234.81176758 C-487.88017059 233.82666702 -488.23739197 232.84156647 -488.60543823 231.82661438 C-489.00119049 230.77652695 -489.39694275 229.72643951 -489.8046875 228.64453125 C-490.20325958 227.54711105 -490.60183167 226.44969086 -491.01248169 225.3190155 C-492.28679309 221.81184965 -493.57874771 218.31161104 -494.875 214.8125 C-496.57517046 210.22025747 -498.25738687 205.62198501 -499.9296875 201.01953125 C-500.51724319 199.45958183 -500.51724319 199.45958183 -501.1166687 197.86811829 C-504.83214482 187.63864476 -506.58835806 178.21334517 -502 168 C-495.23103537 154.72241553 -477.2391399 151.46970643 -464.18896484 147.14111328 C-458.57715623 145.27949964 -452.97505125 143.38899218 -447.37109375 141.50390625 C-446.23606415 141.12307892 -445.10103455 140.74225159 -443.93161011 140.34988403 C-433.42354413 136.82016433 -422.95831307 133.17397504 -412.5 129.5 C-397.03095908 124.07398488 -381.52623581 118.76001738 -366 113.5 C-349.53126141 107.9206174 -333.09166009 102.26672856 -316.68212891 96.515625 C-301.65685625 91.25162151 -286.594654 86.10217753 -271.51763916 80.98846436 C-257.54947116 76.24919804 -243.60758272 71.44111819 -229.6875 66.5625 C-213.09427353 60.74717443 -196.46002675 55.06009126 -179.80706787 49.41827393 C-164.40327688 44.19791508 -149.03104741 38.89501207 -133.68212891 33.515625 C-118.67172383 28.25683027 -103.62575883 23.10825354 -88.56195068 18.00457764 C-77.58421423 14.28472005 -66.61935874 10.53313145 -55.68359375 6.69140625 C-54.68876984 6.34226166 -53.69394592 5.99311707 -52.66897583 5.63339233 C-47.91871557 3.96511911 -43.17070399 2.29081493 -38.42578125 0.60742188 C-36.73051865 0.01027498 -35.0352088 -0.58673778 -33.33984375 -1.18359375 C-32.19943886 -1.59175575 -32.19943886 -1.59175575 -31.03599548 -2.00816345 C-20.67689679 -5.64137544 -9.35969047 -6.75092568 0 0 Z M-90.1171875 38.68066406 C-91.18590088 39.04814758 -92.25461426 39.4156311 -93.35571289 39.79425049 C-94.51707764 40.19730408 -95.67844238 40.60035767 -96.875 41.015625 C-98.06923584 41.42786316 -99.26347168 41.84010132 -100.49389648 42.26483154 C-103.02982686 43.14104782 -105.5652992 44.01847494 -108.10009766 44.89794922 C-111.32176691 46.01559713 -114.54508069 47.12840649 -117.76898193 48.23959732 C-120.8676791 49.30829453 -123.96503657 50.38085824 -127.0625 51.453125 C-128.2076709 51.84808167 -129.3528418 52.24303833 -130.53271484 52.64996338 C-137.09633113 54.93052758 -143.57677042 57.34884525 -150 60 C-147.65020293 64.26297645 -144.70524692 67.80659219 -141.5 71.4375 C-137.378094 76.16959563 -133.39642699 80.96942551 -129.5625 85.9375 C-125.11766782 91.68377255 -120.45462338 97.20187963 -115.63842773 102.64038086 C-111.76530239 107.03085298 -108.25995333 111.58243868 -104.9765625 116.4375 C-103.02364987 118.34088486 -103.02364987 118.34088486 -99.98339844 117.7956543 C-95.25757724 116.98915575 -90.80530378 115.40535665 -86.2890625 113.83203125 C-85.36265961 113.51473557 -84.43625671 113.19743988 -83.48178101 112.87052917 C-80.52748006 111.85701248 -77.57625993 110.83483345 -74.625 109.8125 C-72.6811806 109.14462608 -70.73717167 108.47730353 -68.79296875 107.81054688 C-57.50735537 103.93391043 -46.24519528 99.99226033 -35 96 C-39.07487655 90.46987635 -43.30401081 85.10058699 -47.6875 79.8125 C-48.29762939 79.07346436 -48.90775879 78.33442871 -49.53637695 77.57299805 C-53.21809498 73.12215235 -56.93812008 68.70636867 -60.6875 64.3125 C-64.50844145 59.83459271 -68.19147101 55.26594191 -71.8125 50.625 C-77.21380545 43.65085603 -77.21380545 43.65085603 -83 37 C-85.63536113 37 -87.62110496 37.81867488 -90.1171875 38.68066406 Z M-218.22485352 82.68066406 C-219.31681534 83.04814758 -220.40877716 83.4156311 -221.53382874 83.79425049 C-222.72020432 84.19730408 -223.9065799 84.60035767 -225.12890625 85.015625 C-226.34770981 85.42786316 -227.56651337 85.84010132 -228.82225037 86.26483154 C-231.40962845 87.14047909 -233.99620196 88.01845642 -236.58227539 88.89794922 C-239.87315635 90.01684673 -243.16621152 91.12917962 -246.45996189 92.23959732 C-249.62180003 93.30678162 -252.78147466 94.38030864 -255.94140625 95.453125 C-257.11361221 95.84808167 -258.28581818 96.24303833 -259.49354553 96.64996338 C-265.81687006 98.8074032 -271.959967 101.13874216 -278 104 C-273.21416348 110.5152781 -268.14356317 116.76460253 -263 123 C-261.49915322 124.83264019 -259.999145 126.66596746 -258.5 128.5 C-257.7575 129.4075 -257.015 130.315 -256.25 131.25 C-254 134 -251.75 136.75 -249.5 139.5 C-248.76265625 140.40105469 -248.0253125 141.30210937 -247.265625 142.23046875 C-245.71297828 144.12844551 -244.16092466 146.02690757 -242.609375 147.92578125 C-238.76045438 152.63497387 -234.90599605 157.33800471 -231 162 C-223.43225044 160.49627443 -216.27324181 158.20911856 -208.9765625 155.71875 C-207.75343353 155.30459839 -206.53030457 154.89044678 -205.27011108 154.46374512 C-202.69904791 153.59264261 -200.12914887 152.71821197 -197.56005859 151.84130859 C-194.27034842 150.71871904 -190.97790158 149.60441342 -187.68456459 148.49251556 C-184.53042423 147.42641625 -181.37859639 146.35356159 -178.2265625 145.28125 C-177.04534821 144.88224487 -175.86413391 144.48323975 -174.64712524 144.07214355 C-173.00929581 143.51146179 -173.00929581 143.51146179 -171.33837891 142.93945312 C-170.3773526 142.6123938 -169.41632629 142.28533447 -168.42617798 141.94836426 C-165.80155449 141.02205244 -165.80155449 141.02205244 -163 139 C-169.20651705 130.92779646 -175.58626368 123.06968592 -182.29272461 115.40698242 C-186.98815974 110.03786965 -191.51714345 104.54784457 -196 99 C-198.99053181 95.32549013 -201.9910217 91.65941534 -205 88 C-205.60328125 87.25878906 -206.2065625 86.51757812 -206.828125 85.75390625 C-208.17364204 84.13079467 -209.58008449 82.55844385 -211 81 C-213.65972991 81 -215.70031244 81.82765569 -218.22485352 82.68066406 Z M-344.98779297 126.68066406 C-346.5861348 127.23188934 -346.5861348 127.23188934 -348.21676636 127.79425049 C-349.38015533 128.19730408 -350.54354431 128.60035767 -351.7421875 129.015625 C-352.93546661 129.42786316 -354.12874573 129.84010132 -355.35818481 130.26483154 C-357.8956224 131.14180446 -360.4328457 132.01936979 -362.96972656 132.89794922 C-366.19092909 134.01348016 -369.4128499 135.12691791 -372.63503838 136.23959732 C-375.73358864 137.30980788 -378.83162486 138.38150384 -381.9296875 139.453125 C-383.07283417 139.84808167 -384.21598083 140.24303833 -385.39376831 140.64996338 C-392.28585754 143.03777681 -399.15334081 145.48483937 -406 148 C-399.99842822 156.17128988 -393.58227969 163.98225166 -387.00463867 171.69458008 C-381.86835792 177.71796223 -376.92337501 183.85275972 -372.09375 190.125 C-367.57277251 195.89222936 -362.75123523 201.42264532 -358 207 C-335.56562817 199.60625728 -313.22379439 192.00590962 -291 184 C-293.78068771 179.6636828 -296.81481268 175.70951016 -300.1875 171.8125 C-301.17518339 170.65815426 -302.16215339 169.50319777 -303.1484375 168.34765625 C-303.87691895 167.49518311 -303.87691895 167.49518311 -304.62011719 166.62548828 C-307.29054148 163.47975493 -309.88621786 160.27330335 -312.4921875 157.07421875 C-317.40595487 151.0506441 -322.35361196 145.05491379 -327.30175781 139.05957031 C-328.89899707 137.12249291 -330.49269649 135.18255343 -332.0859375 133.2421875 C-332.99460041 132.14046723 -333.903442 131.03889429 -334.8125 129.9375 C-335.60269531 128.97714844 -336.39289063 128.01679688 -337.20703125 127.02734375 C-337.79871094 126.35832031 -338.39039063 125.68929687 -339 125 C-341.03957907 125 -343.09085479 126.02502802 -344.98779297 126.68066406 Z M-441 217 C-445.1388165 223.14446146 -446.16679306 229.73313094 -445 237 C-442.48862863 244.71191031 -438.22345555 250.13798165 -431.125 254.02734375 C-425.03172039 256.69315358 -418.69092039 257.22486296 -412.3515625 255.12109375 C-405.11511949 251.82883815 -401.04610523 247.54658239 -397.125 240.75 C-394.90222123 233.34073742 -395.00888526 226.11787293 -398.53515625 219.140625 C-401.96304614 214.13133524 -406.51378327 210.29715656 -411.875 207.5 C-423.80250348 205.59159944 -432.77832029 207.83309463 -441 217 Z M-355 241 C-357.32206742 246.22465169 -359.56007616 251.28413255 -361.56542969 256.60546875 C-362.25569244 258.43150635 -362.25569244 258.43150635 -362.9598999 260.29443359 C-363.44733142 261.5920824 -363.93465398 262.88977214 -364.421875 264.1875 C-364.93163905 265.53994593 -365.44159106 266.89232102 -365.95172119 268.24462891 C-367.01228711 271.05780668 -368.07105169 273.87165325 -369.12841797 276.68603516 C-370.48620844 280.29980254 -371.84787087 283.91209612 -373.21076584 287.52394104 C-374.26032073 290.30629887 -375.30821884 293.08927823 -376.35556793 295.87246704 C-376.85752486 297.20594525 -377.35991953 298.53925877 -377.86275482 299.87240601 C-378.56085629 301.7242169 -379.25656578 303.57692901 -379.95214844 305.4296875 C-380.34867615 306.48397949 -380.74520386 307.53827148 -381.15374756 308.62451172 C-382.05593083 310.73671446 -382.05593083 310.73671446 -382 312 C-358.57 312 -335.14 312 -311 312 C-304.52709143 295.8676677 -304.52709143 295.8676677 -298.28125 279.65234375 C-297.89304077 278.62234756 -297.50483154 277.59235138 -297.1048584 276.53114319 C-296.30412498 274.40391908 -295.50451344 272.27627231 -294.70605469 270.14819336 C-293.47841934 266.88004913 -292.24316249 263.61484415 -291.0078125 260.34960938 C-290.22349577 258.26319466 -289.43962403 256.1766126 -288.65625 254.08984375 C-288.28761841 253.11812729 -287.91898682 252.14641083 -287.53918457 251.14524841 C-287.03735657 249.80092491 -287.03735657 249.80092491 -286.52539062 248.42944336 C-286.2297522 247.64371445 -285.93411377 246.85798553 -285.6295166 246.04844666 C-284.8531222 243.87922545 -284.8531222 243.87922545 -285 241 C-308.1 241 -331.2 241 -355 241 Z M-220 241 C-222.32206742 246.22465169 -224.56007616 251.28413255 -226.56542969 256.60546875 C-227.25569244 258.43150635 -227.25569244 258.43150635 -227.9598999 260.29443359 C-228.44733142 261.5920824 -228.93465398 262.88977214 -229.421875 264.1875 C-229.93163905 265.53994593 -230.44159106 266.89232102 -230.95172119 268.24462891 C-232.01228711 271.05780668 -233.07105169 273.87165325 -234.12841797 276.68603516 C-235.48620844 280.29980254 -236.84787087 283.91209612 -238.21076584 287.52394104 C-239.26032073 290.30629887 -240.30821884 293.08927823 -241.35556793 295.87246704 C-241.85752486 297.20594525 -242.35991953 298.53925877 -242.86275482 299.87240601 C-243.56085629 301.7242169 -244.25656578 303.57692901 -244.95214844 305.4296875 C-245.34867615 306.48397949 -245.74520386 307.53827148 -246.15374756 308.62451172 C-247.05593083 310.73671446 -247.05593083 310.73671446 -247 312 C-223.57 312 -200.14 312 -176 312 C-169.52709143 295.8676677 -169.52709143 295.8676677 -163.28125 279.65234375 C-162.89304077 278.62234756 -162.50483154 277.59235138 -162.1048584 276.53114319 C-161.30412498 274.40391908 -160.50451344 272.27627231 -159.70605469 270.14819336 C-158.47841934 266.88004913 -157.24316249 263.61484415 -156.0078125 260.34960938 C-155.22349577 258.26319466 -154.43962403 256.1766126 -153.65625 254.08984375 C-153.28761841 253.11812729 -152.91898682 252.14641083 -152.53918457 251.14524841 C-152.03735657 249.80092491 -152.03735657 249.80092491 -151.52539062 248.42944336 C-151.2297522 247.64371445 -150.93411377 246.85798553 -150.6295166 246.04844666 C-149.8531222 243.87922545 -149.8531222 243.87922545 -150 241 C-173.1 241 -196.2 241 -220 241 Z M-85 241 C-89.62416608 253.21368491 -89.62416608 253.21368491 -94.2421875 265.4296875 C-96.12342334 270.41022734 -98.00538654 275.39048399 -99.89160156 280.36914062 C-101.41170137 284.38157276 -102.92860442 288.3951997 -104.44326782 292.40968704 C-105.02264946 293.9435721 -105.60319542 295.47701787 -106.18490601 297.01002121 C-106.99742113 299.15186251 -107.80583885 301.29520703 -108.61328125 303.43896484 C-109.07516846 304.66030121 -109.53705566 305.88163757 -110.01293945 307.13998413 C-111.10874707 309.81083645 -111.10874707 309.81083645 -111 312 C-87.57 312 -64.14 312 -40 312 C-35.37583392 299.78631509 -35.37583392 299.78631509 -30.7578125 287.5703125 C-28.87657666 282.58977266 -26.99461346 277.60951601 -25.10839844 272.63085938 C-23.58829863 268.61842724 -22.07139558 264.6048003 -20.55673218 260.59031296 C-19.97735054 259.0564279 -19.39680458 257.52298213 -18.81509399 255.98997879 C-18.00257887 253.84813749 -17.19416115 251.70479297 -16.38671875 249.56103516 C-15.69388794 247.72903061 -15.69388794 247.72903061 -14.98706055 245.86001587 C-13.89125293 243.18916355 -13.89125293 243.18916355 -14 241 C-37.43 241 -60.86 241 -85 241 Z M-449 331 C-466.13424346 425.69688843 -466.13424346 425.69688843 -444.53515625 505.64453125 C-439.18477056 509.88794059 -435.31826623 510.14842957 -428.65851212 510.13142776 C-427.91340909 510.1334804 -427.16830606 510.13553303 -426.40062416 510.13764787 C-423.88997077 510.14332736 -421.37937208 510.14185945 -418.86871338 510.14044189 C-417.0560499 510.14302498 -415.24338698 510.14603799 -413.43072486 510.1494453 C-408.43851184 510.15752511 -403.44631319 510.15930541 -398.45409441 510.16004276 C-393.07427108 510.1618916 -387.69445524 510.16943806 -382.31463623 510.17617798 C-370.54611724 510.18976861 -358.77760165 510.1957871 -347.00907612 510.20018864 C-339.66335541 510.20294972 -332.31763602 510.20718682 -324.9719162 510.21169281 C-304.64105944 510.22388623 -284.31020375 510.23418553 -263.97934341 510.2375679 C-262.67774744 510.23778747 -261.37615147 510.23800703 -260.0351132 510.23823325 C-258.73037216 510.23845153 -257.42563112 510.23866981 -256.08135247 510.2388947 C-253.437373 510.23933817 -250.79339353 510.23978473 -248.14941406 510.24023438 C-246.18214905 510.24056652 -246.18214905 510.24056652 -244.1751413 510.24090537 C-222.91884531 510.2448543 -201.66258357 510.26231087 -180.40630081 510.2855939 C-158.5923748 510.30929525 -136.77846599 510.32176919 -114.96452689 510.32293582 C-102.71292744 510.32385324 -90.46137263 510.32962253 -78.20978546 510.34775543 C-67.77825725 510.36313996 -57.34678749 510.3682866 -46.91525009 510.36001733 C-41.5917867 510.35610505 -36.26844105 510.35706866 -30.94499207 510.37107468 C-26.0718837 510.38377875 -21.19898199 510.38264681 -16.32587406 510.37048396 C-14.56273851 510.36852091 -12.7995885 510.37163339 -11.0364733 510.38032833 C-8.63901575 510.39140323 -6.24228979 510.38394488 -3.84485245 510.3719368 C-3.16109995 510.37953199 -2.47734746 510.38712718 -1.77287519 510.39495254 C4.29649869 510.32937135 9.88550123 509.00320936 14.375 504.75 C43.84531779 454.87715451 18 388.92927021 18 331 C-136.11 331 -290.22 331 -449 331 Z " fill="#ffffff" transform="translate(576,29)"/>
</svg>
